<svg width="89" height="78" viewBox="0 0 89 78" fill="none" xmlns="http://www.w3.org/2000/svg">
<path d="M57.2532 50.5635C57.072 51.7589 59.8276 52.0984 68.9916 52.0474C78.6921 51.9872 80.8298 51.6209 80.5451 50.1984C80.1295 48.247 57.596 48.6377 57.2532 50.5635Z" fill="#171717"/>
<path d="M53.536 7.89036C49.9292 7.6043 49.4164 8.1858 46.4355 15.9168C43.3483 23.8987 43.0685 25.4666 44.5164 26.169C47.147 27.4319 48.6419 25.5802 52.9528 15.898C56.1292 8.75278 56.1981 8.10148 53.536 7.89036Z" fill="#171717"/>
<path d="M72.491 21.8729C69.9003 21.6328 68.9149 22.0732 65.6139 24.9051C55.8539 33.3429 48.2129 38.5958 53.265 38.9619C55.326 39.1253 57.3022 37.7439 69.0468 28.2537C75.5144 22.9768 75.9549 22.2167 72.491 21.8729Z" fill="#171717"/>
<rect y="25.3279" width="52" height="52" rx="26" fill="#171717"/>
</svg>
